<svg width="30" height="30" viewBox="0 0 30 30" fill="none" xmlns="http://www.w3.org/2000/svg">
<circle cx="15" cy="15" r="15" fill="black" fill-opacity="0.8"/>
<g clip-path="url(#clip0_13098_11762)">
<path d="M12.8332 19.8748L19.3332 14.9998L12.8332 10.1248V19.8748ZM14.9998 4.1665C9.01984 4.1665 4.1665 9.01984 4.1665 14.9998C4.1665 20.9798 9.01984 25.8332 14.9998 25.8332C20.9798 25.8332 25.8332 20.9798 25.8332 14.9998C25.8332 9.01984 20.9798 4.1665 14.9998 4.1665ZM14.9998 23.6665C10.2223 23.6665 6.33317 19.7773 6.33317 14.9998C6.33317 10.2223 10.2223 6.33317 14.9998 6.33317C19.7773 6.33317 23.6665 10.2223 23.6665 14.9998C23.6665 19.7773 19.7773 23.6665 14.9998 23.6665Z" fill="#E9E9E9"/>
</g>
<defs>
<clipPath id="clip0_13098_11762">
<rect width="26" height="26" fill="white" transform="translate(2 2)"/>
</clipPath>
</defs>
</svg>
